<svg xmlns="http://www.w3.org/2000/svg" width="400" height="400" viewBox="0 0 400 400" role="img" aria-label="Rellotge analògic">
<rect width="400" height="400" rx="32" fill="#f8fafc"/>
<circle cx="200.0" cy="200.0" r="156.0" fill="#ffffff" stroke="#0d0e37" stroke-width="10"/>
<line x1="200.00" y1="72.00" x2="200.00" y2="52.00" stroke="#0d0e37" stroke-width="6" stroke-linecap="round"/>
<line x1="214.53" y1="61.76" x2="215.47" y2="52.81" stroke="#0d0e37" stroke-width="2.5" stroke-linecap="round"/>
<line x1="228.90" y1="64.04" x2="230.77" y2="55.23" stroke="#0d0e37" stroke-width="2.5" stroke-linecap="round"/>
<line x1="242.95" y1="67.80" x2="245.73" y2="59.24" stroke="#0d0e37" stroke-width="2.5" stroke-linecap="round"/>
<line x1="256.54" y1="73.02" x2="260.20" y2="64.80" stroke="#0d0e37" stroke-width="2.5" stroke-linecap="round"/>
<line x1="264.00" y1="89.15" x2="274.00" y2="71.83" stroke="#0d0e37" stroke-width="6" stroke-linecap="round"/>
<line x1="281.70" y1="87.55" x2="286.99" y2="80.27" stroke="#0d0e37" stroke-width="2.5" stroke-linecap="round"/>
<line x1="293.01" y1="96.70" x2="299.03" y2="90.01" stroke="#0d0e37" stroke-width="2.5" stroke-linecap="round"/>
<line x1="303.30" y1="106.99" x2="309.99" y2="100.97" stroke="#0d0e37" stroke-width="2.5" stroke-linecap="round"/>
<line x1="312.45" y1="118.30" x2="319.73" y2="113.01" stroke="#0d0e37" stroke-width="2.5" stroke-linecap="round"/>
<line x1="310.85" y1="136.00" x2="328.17" y2="126.00" stroke="#0d0e37" stroke-width="6" stroke-linecap="round"/>
<line x1="326.98" y1="143.46" x2="335.20" y2="139.80" stroke="#0d0e37" stroke-width="2.5" stroke-linecap="round"/>
<line x1="332.20" y1="157.05" x2="340.76" y2="154.27" stroke="#0d0e37" stroke-width="2.5" stroke-linecap="round"/>
<line x1="335.96" y1="171.10" x2="344.77" y2="169.23" stroke="#0d0e37" stroke-width="2.5" stroke-linecap="round"/>
<line x1="338.24" y1="185.47" x2="347.19" y2="184.53" stroke="#0d0e37" stroke-width="2.5" stroke-linecap="round"/>
<line x1="328.00" y1="200.00" x2="348.00" y2="200.00" stroke="#0d0e37" stroke-width="6" stroke-linecap="round"/>
<line x1="338.24" y1="214.53" x2="347.19" y2="215.47" stroke="#0d0e37" stroke-width="2.5" stroke-linecap="round"/>
<line x1="335.96" y1="228.90" x2="344.77" y2="230.77" stroke="#0d0e37" stroke-width="2.5" stroke-linecap="round"/>
<line x1="332.20" y1="242.95" x2="340.76" y2="245.73" stroke="#0d0e37" stroke-width="2.5" stroke-linecap="round"/>
<line x1="326.98" y1="256.54" x2="335.20" y2="260.20" stroke="#0d0e37" stroke-width="2.5" stroke-linecap="round"/>
<line x1="310.85" y1="264.00" x2="328.17" y2="274.00" stroke="#0d0e37" stroke-width="6" stroke-linecap="round"/>
<line x1="312.45" y1="281.70" x2="319.73" y2="286.99" stroke="#0d0e37" stroke-width="2.5" stroke-linecap="round"/>
<line x1="303.30" y1="293.01" x2="309.99" y2="299.03" stroke="#0d0e37" stroke-width="2.5" stroke-linecap="round"/>
<line x1="293.01" y1="303.30" x2="299.03" y2="309.99" stroke="#0d0e37" stroke-width="2.5" stroke-linecap="round"/>
<line x1="281.70" y1="312.45" x2="286.99" y2="319.73" stroke="#0d0e37" stroke-width="2.5" stroke-linecap="round"/>
<line x1="264.00" y1="310.85" x2="274.00" y2="328.17" stroke="#0d0e37" stroke-width="6" stroke-linecap="round"/>
<line x1="256.54" y1="326.98" x2="260.20" y2="335.20" stroke="#0d0e37" stroke-width="2.5" stroke-linecap="round"/>
<line x1="242.95" y1="332.20" x2="245.73" y2="340.76" stroke="#0d0e37" stroke-width="2.5" stroke-linecap="round"/>
<line x1="228.90" y1="335.96" x2="230.77" y2="344.77" stroke="#0d0e37" stroke-width="2.5" stroke-linecap="round"/>
<line x1="214.53" y1="338.24" x2="215.47" y2="347.19" stroke="#0d0e37" stroke-width="2.5" stroke-linecap="round"/>
<line x1="200.00" y1="328.00" x2="200.00" y2="348.00" stroke="#0d0e37" stroke-width="6" stroke-linecap="round"/>
<line x1="185.47" y1="338.24" x2="184.53" y2="347.19" stroke="#0d0e37" stroke-width="2.5" stroke-linecap="round"/>
<line x1="171.10" y1="335.96" x2="169.23" y2="344.77" stroke="#0d0e37" stroke-width="2.5" stroke-linecap="round"/>
<line x1="157.05" y1="332.20" x2="154.27" y2="340.76" stroke="#0d0e37" stroke-width="2.5" stroke-linecap="round"/>
<line x1="143.46" y1="326.98" x2="139.80" y2="335.20" stroke="#0d0e37" stroke-width="2.5" stroke-linecap="round"/>
<line x1="136.00" y1="310.85" x2="126.00" y2="328.17" stroke="#0d0e37" stroke-width="6" stroke-linecap="round"/>
<line x1="118.30" y1="312.45" x2="113.01" y2="319.73" stroke="#0d0e37" stroke-width="2.5" stroke-linecap="round"/>
<line x1="106.99" y1="303.30" x2="100.97" y2="309.99" stroke="#0d0e37" stroke-width="2.5" stroke-linecap="round"/>
<line x1="96.70" y1="293.01" x2="90.01" y2="299.03" stroke="#0d0e37" stroke-width="2.5" stroke-linecap="round"/>
<line x1="87.55" y1="281.70" x2="80.27" y2="286.99" stroke="#0d0e37" stroke-width="2.5" stroke-linecap="round"/>
<line x1="89.15" y1="264.00" x2="71.83" y2="274.00" stroke="#0d0e37" stroke-width="6" stroke-linecap="round"/>
<line x1="73.02" y1="256.54" x2="64.80" y2="260.20" stroke="#0d0e37" stroke-width="2.5" stroke-linecap="round"/>
<line x1="67.80" y1="242.95" x2="59.24" y2="245.73" stroke="#0d0e37" stroke-width="2.5" stroke-linecap="round"/>
<line x1="64.04" y1="228.90" x2="55.23" y2="230.77" stroke="#0d0e37" stroke-width="2.5" stroke-linecap="round"/>
<line x1="61.76" y1="214.53" x2="52.81" y2="215.47" stroke="#0d0e37" stroke-width="2.5" stroke-linecap="round"/>
<line x1="72.00" y1="200.00" x2="52.00" y2="200.00" stroke="#0d0e37" stroke-width="6" stroke-linecap="round"/>
<line x1="61.76" y1="185.47" x2="52.81" y2="184.53" stroke="#0d0e37" stroke-width="2.5" stroke-linecap="round"/>
<line x1="64.04" y1="171.10" x2="55.23" y2="169.23" stroke="#0d0e37" stroke-width="2.5" stroke-linecap="round"/>
<line x1="67.80" y1="157.05" x2="59.24" y2="154.27" stroke="#0d0e37" stroke-width="2.5" stroke-linecap="round"/>
<line x1="73.02" y1="143.46" x2="64.80" y2="139.80" stroke="#0d0e37" stroke-width="2.5" stroke-linecap="round"/>
<line x1="89.15" y1="136.00" x2="71.83" y2="126.00" stroke="#0d0e37" stroke-width="6" stroke-linecap="round"/>
<line x1="87.55" y1="118.30" x2="80.27" y2="113.01" stroke="#0d0e37" stroke-width="2.5" stroke-linecap="round"/>
<line x1="96.70" y1="106.99" x2="90.01" y2="100.97" stroke="#0d0e37" stroke-width="2.5" stroke-linecap="round"/>
<line x1="106.99" y1="96.70" x2="100.97" y2="90.01" stroke="#0d0e37" stroke-width="2.5" stroke-linecap="round"/>
<line x1="118.30" y1="87.55" x2="113.01" y2="80.27" stroke="#0d0e37" stroke-width="2.5" stroke-linecap="round"/>
<line x1="136.00" y1="89.15" x2="126.00" y2="71.83" stroke="#0d0e37" stroke-width="6" stroke-linecap="round"/>
<line x1="143.46" y1="73.02" x2="139.80" y2="64.80" stroke="#0d0e37" stroke-width="2.5" stroke-linecap="round"/>
<line x1="157.05" y1="67.80" x2="154.27" y2="59.24" stroke="#0d0e37" stroke-width="2.5" stroke-linecap="round"/>
<line x1="171.10" y1="64.04" x2="169.23" y2="55.23" stroke="#0d0e37" stroke-width="2.5" stroke-linecap="round"/>
<line x1="185.47" y1="61.76" x2="184.53" y2="52.81" stroke="#0d0e37" stroke-width="2.5" stroke-linecap="round"/>
<text x="200.00" y="107.00" text-anchor="middle" font-family="DejaVu Sans, sans-serif" font-size="34" font-weight="700" fill="#0d0e37">12</text>
<text x="304.00" y="211.00" text-anchor="middle" font-family="DejaVu Sans, sans-serif" font-size="34" font-weight="700" fill="#0d0e37">3</text>
<text x="200.00" y="315.00" text-anchor="middle" font-family="DejaVu Sans, sans-serif" font-size="34" font-weight="700" fill="#0d0e37">6</text>
<text x="96.00" y="211.00" text-anchor="middle" font-family="DejaVu Sans, sans-serif" font-size="34" font-weight="700" fill="#0d0e37">9</text>
<line x1="200.0" y1="200.0" x2="213.54" y2="276.82" stroke="#219ebc" stroke-width="15" stroke-linecap="round"/>
<line x1="200.0" y1="200.0" x2="102.73" y2="256.16" stroke="#f7836a" stroke-width="10" stroke-linecap="round"/>
<circle cx="200.0" cy="200.0" r="13" fill="#0d0e37"/>
</svg>